<svg width="18" height="18" viewBox="0 0 18 18" fill="none" xmlns="http://www.w3.org/2000/svg">
<path d="M4.77754 7.13239C1.71754 7.34989 1.72504 11.7824 4.77754 11.9999H12.0225C12.9 12.0074 13.7476 11.6774 14.4001 11.0849C16.5451 9.2099 15.3976 5.45987 12.5701 5.09987C11.5576 -1.00513 2.71505 1.31239 4.80755 7.13239" stroke="#E9EBF8" stroke-width="1.5" stroke-miterlimit="10" stroke-linecap="round" stroke-linejoin="round"/>
<path d="M9 12V14.25" stroke="#E9EBF8" stroke-width="1.5" stroke-miterlimit="10" stroke-linecap="round" stroke-linejoin="round"/>
<path d="M9 17.25C9.82843 17.25 10.5 16.5784 10.5 15.75C10.5 14.9216 9.82843 14.25 9 14.25C8.17157 14.25 7.5 14.9216 7.5 15.75C7.5 16.5784 8.17157 17.25 9 17.25Z" stroke="#E9EBF8" stroke-width="1.5" stroke-miterlimit="10" stroke-linecap="round" stroke-linejoin="round"/>
<path d="M13.5 15.75H10.5" stroke="#E9EBF8" stroke-width="1.5" stroke-miterlimit="10" stroke-linecap="round" stroke-linejoin="round"/>
<path d="M7.5 15.75H4.5" stroke="#E9EBF8" stroke-width="1.5" stroke-miterlimit="10" stroke-linecap="round" stroke-linejoin="round"/>
</svg>
